<svg class="rich-terminal" viewBox="0 0 1995 1099.2" xmlns="http://www.w3.org/2000/svg">
    <!-- Generated with Rich https://www.textualize.io -->
    <style>

    @font-face {
        font-family: "Fira Code";
        src: local("FiraCode-Regular"),
                url("https://cdnjs.cloudflare.com/ajax/libs/firacode/6.2.0/woff2/FiraCode-Regular.woff2") format("woff2"),
                url("https://cdnjs.cloudflare.com/ajax/libs/firacode/6.2.0/woff/FiraCode-Regular.woff") format("woff");
        font-style: normal;
        font-weight: 400;
    }
    @font-face {
        font-family: "Fira Code";
        src: local("FiraCode-Bold"),
                url("https://cdnjs.cloudflare.com/ajax/libs/firacode/6.2.0/woff2/FiraCode-Bold.woff2") format("woff2"),
                url("https://cdnjs.cloudflare.com/ajax/libs/firacode/6.2.0/woff/FiraCode-Bold.woff") format("woff");
        font-style: bold;
        font-weight: 700;
    }

    .terminal-9222737-matrix {
        font-family: Fira Code, monospace;
        font-size: 20px;
        line-height: 24.4px;
        font-variant-east-asian: full-width;
    }

    .terminal-9222737-title {
        font-size: 18px;
        font-weight: bold;
        font-family: arial;
    }

    .terminal-9222737-r1 { fill: #c5c8c6 }
.terminal-9222737-r2 { fill: #a9b1d6 }
.terminal-9222737-r3 { fill: #00ffff;font-weight: bold }
.terminal-9222737-r4 { fill: #008000 }
.terminal-9222737-r5 { fill: #0000ff;font-weight: bold }
.terminal-9222737-r6 { fill: #ffff00 }
.terminal-9222737-r7 { fill: #a9b1d6;font-weight: bold }
.terminal-9222737-r8 { fill: #34384c }
.terminal-9222737-r9 { fill: #14182a }
    </style>

    <defs>
    <clipPath id="terminal-9222737-clip-terminal">
      <rect x="0" y="0" width="1975.3999999999999" height="1048.2" />
    </clipPath>
    <clipPath id="terminal-9222737-line-0">
    <rect x="0" y="1.5" width="1976.4" height="24.65"/>
            </clipPath>
<clipPath id="terminal-9222737-line-1">
    <rect x="0" y="25.9" width="1976.4" height="24.65"/>
            </clipPath>
<clipPath id="terminal-9222737-line-2">
    <rect x="0" y="50.3" width="1976.4" height="24.65"/>
            </clipPath>
<clipPath id="terminal-9222737-line-3">
    <rect x="0" y="74.7" width="1976.4" height="24.65"/>
            </clipPath>
<clipPath id="terminal-9222737-line-4">
    <rect x="0" y="99.1" width="1976.4" height="24.65"/>
            </clipPath>
<clipPath id="terminal-9222737-line-5">
    <rect x="0" y="123.5" width="1976.4" height="24.65"/>
            </clipPath>
<clipPath id="terminal-9222737-line-6">
    <rect x="0" y="147.9" width="1976.4" height="24.65"/>
            </clipPath>
<clipPath id="terminal-9222737-line-7">
    <rect x="0" y="172.3" width="1976.4" height="24.65"/>
            </clipPath>
<clipPath id="terminal-9222737-line-8">
    <rect x="0" y="196.7" width="1976.4" height="24.65"/>
            </clipPath>
<clipPath id="terminal-9222737-line-9">
    <rect x="0" y="221.1" width="1976.4" height="24.65"/>
            </clipPath>
<clipPath id="terminal-9222737-line-10">
    <rect x="0" y="245.5" width="1976.4" height="24.65"/>
            </clipPath>
<clipPath id="terminal-9222737-line-11">
    <rect x="0" y="269.9" width="1976.4" height="24.65"/>
            </clipPath>
<clipPath id="terminal-9222737-line-12">
    <rect x="0" y="294.3" width="1976.4" height="24.65"/>
            </clipPath>
<clipPath id="terminal-9222737-line-13">
    <rect x="0" y="318.7" width="1976.4" height="24.65"/>
            </clipPath>
<clipPath id="terminal-9222737-line-14">
    <rect x="0" y="343.1" width="1976.4" height="24.65"/>
            </clipPath>
<clipPath id="terminal-9222737-line-15">
    <rect x="0" y="367.5" width="1976.4" height="24.65"/>
            </clipPath>
<clipPath id="terminal-9222737-line-16">
    <rect x="0" y="391.9" width="1976.4" height="24.65"/>
            </clipPath>
<clipPath id="terminal-9222737-line-17">
    <rect x="0" y="416.3" width="1976.4" height="24.65"/>
            </clipPath>
<clipPath id="terminal-9222737-line-18">
    <rect x="0" y="440.7" width="1976.4" height="24.65"/>
            </clipPath>
<clipPath id="terminal-9222737-line-19">
    <rect x="0" y="465.1" width="1976.4" height="24.65"/>
            </clipPath>
<clipPath id="terminal-9222737-line-20">
    <rect x="0" y="489.5" width="1976.4" height="24.65"/>
            </clipPath>
<clipPath id="terminal-9222737-line-21">
    <rect x="0" y="513.9" width="1976.4" height="24.65"/>
            </clipPath>
<clipPath id="terminal-9222737-line-22">
    <rect x="0" y="538.3" width="1976.4" height="24.65"/>
            </clipPath>
<clipPath id="terminal-9222737-line-23">
    <rect x="0" y="562.7" width="1976.4" height="24.65"/>
            </clipPath>
<clipPath id="terminal-9222737-line-24">
    <rect x="0" y="587.1" width="1976.4" height="24.65"/>
            </clipPath>
<clipPath id="terminal-9222737-line-25">
    <rect x="0" y="611.5" width="1976.4" height="24.65"/>
            </clipPath>
<clipPath id="terminal-9222737-line-26">
    <rect x="0" y="635.9" width="1976.4" height="24.65"/>
            </clipPath>
<clipPath id="terminal-9222737-line-27">
    <rect x="0" y="660.3" width="1976.4" height="24.65"/>
            </clipPath>
<clipPath id="terminal-9222737-line-28">
    <rect x="0" y="684.7" width="1976.4" height="24.65"/>
            </clipPath>
<clipPath id="terminal-9222737-line-29">
    <rect x="0" y="709.1" width="1976.4" height="24.65"/>
            </clipPath>
<clipPath id="terminal-9222737-line-30">
    <rect x="0" y="733.5" width="1976.4" height="24.65"/>
            </clipPath>
<clipPath id="terminal-9222737-line-31">
    <rect x="0" y="757.9" width="1976.4" height="24.65"/>
            </clipPath>
<clipPath id="terminal-9222737-line-32">
    <rect x="0" y="782.3" width="1976.4" height="24.65"/>
            </clipPath>
<clipPath id="terminal-9222737-line-33">
    <rect x="0" y="806.7" width="1976.4" height="24.65"/>
            </clipPath>
<clipPath id="terminal-9222737-line-34">
    <rect x="0" y="831.1" width="1976.4" height="24.65"/>
            </clipPath>
<clipPath id="terminal-9222737-line-35">
    <rect x="0" y="855.5" width="1976.4" height="24.65"/>
            </clipPath>
<clipPath id="terminal-9222737-line-36">
    <rect x="0" y="879.9" width="1976.4" height="24.65"/>
            </clipPath>
<clipPath id="terminal-9222737-line-37">
    <rect x="0" y="904.3" width="1976.4" height="24.65"/>
            </clipPath>
<clipPath id="terminal-9222737-line-38">
    <rect x="0" y="928.7" width="1976.4" height="24.65"/>
            </clipPath>
<clipPath id="terminal-9222737-line-39">
    <rect x="0" y="953.1" width="1976.4" height="24.65"/>
            </clipPath>
<clipPath id="terminal-9222737-line-40">
    <rect x="0" y="977.5" width="1976.4" height="24.65"/>
            </clipPath>
<clipPath id="terminal-9222737-line-41">
    <rect x="0" y="1001.9" width="1976.4" height="24.65"/>
            </clipPath>
    </defs>

    <rect fill="#292929" stroke="rgba(255,255,255,0.35)" stroke-width="1" x="1" y="1" width="1993" height="1097.2" rx="8"/><text class="terminal-9222737-title" fill="#c5c8c6" text-anchor="middle" x="996" y="27">WebhookApp</text>
            <g transform="translate(26,22)">
            <circle cx="0" cy="0" r="7" fill="#ff5f57"/>
            <circle cx="22" cy="0" r="7" fill="#febc2e"/>
            <circle cx="44" cy="0" r="7" fill="#28c840"/>
            </g>
        
    <g transform="translate(9, 41)" clip-path="url(#terminal-9222737-clip-terminal)">
    <rect fill="#414868" x="0" y="1.5" width="12.2" height="24.65" shape-rendering="crispEdges"/><rect fill="#414868" x="12.2" y="1.5" width="12.2" height="24.65" shape-rendering="crispEdges"/><rect fill="#414868" x="24.4" y="1.5" width="61" height="24.65" shape-rendering="crispEdges"/><rect fill="#414868" x="85.4" y="1.5" width="12.2" height="24.65" shape-rendering="crispEdges"/><rect fill="#414868" x="97.6" y="1.5" width="817.4" height="24.65" shape-rendering="crispEdges"/><rect fill="#414868" x="915" y="1.5" width="122" height="24.65" shape-rendering="crispEdges"/><rect fill="#414868" x="1037" y="1.5" width="817.4" height="24.65" shape-rendering="crispEdges"/><rect fill="#414868" x="1854.4" y="1.5" width="12.2" height="24.65" shape-rendering="crispEdges"/><rect fill="#414868" x="1866.6" y="1.5" width="0" height="24.65" shape-rendering="crispEdges"/><rect fill="#414868" x="1866.6" y="1.5" width="97.6" height="24.65" shape-rendering="crispEdges"/><rect fill="#414868" x="1964.2" y="1.5" width="12.2" height="24.65" shape-rendering="crispEdges"/><rect fill="#1a1b26" x="0" y="25.9" width="231.8" height="24.65" shape-rendering="crispEdges"/><rect fill="#1a1b26" x="231.8" y="25.9" width="1744.6" height="24.65" shape-rendering="crispEdges"/><rect fill="#1a1b26" x="0" y="50.3" width="1976.4" height="24.65" shape-rendering="crispEdges"/><rect fill="#1a1b26" x="0" y="74.7" width="12.2" height="24.65" shape-rendering="crispEdges"/><rect fill="#1a1b26" x="12.2" y="74.7" width="183" height="24.65" shape-rendering="crispEdges"/><rect fill="#1a1b26" x="195.2" y="74.7" width="1769" height="24.65" shape-rendering="crispEdges"/><rect fill="#1a1b26" x="1964.2" y="74.7" width="12.2" height="24.65" shape-rendering="crispEdges"/><rect fill="#1a1b26" x="0" y="99.1" width="1976.4" height="24.65" shape-rendering="crispEdges"/><rect fill="#1a1b26" x="0" y="123.5" width="12.2" height="24.65" shape-rendering="crispEdges"/><rect fill="#1a1b26" x="12.2" y="123.5" width="841.8" height="24.65" shape-rendering="crispEdges"/><rect fill="#1a1b26" x="854" y="123.5" width="1110.2" height="24.65" shape-rendering="crispEdges"/><rect fill="#1a1b26" x="1964.2" y="123.5" width="12.2" height="24.65" shape-rendering="crispEdges"/><rect fill="#1a1b26" x="0" y="147.9" width="1976.4" height="24.65" shape-rendering="crispEdges"/><rect fill="#1a1b26" x="0" y="172.3" width="12.2" height="24.65" shape-rendering="crispEdges"/><rect fill="#1a1b26" x="12.2" y="172.3" width="244" height="24.65" shape-rendering="crispEdges"/><rect fill="#1a1b26" x="256.2" y="172.3" width="1708" height="24.65" shape-rendering="crispEdges"/><rect fill="#1a1b26" x="1964.2" y="172.3" width="12.2" height="24.65" shape-rendering="crispEdges"/><rect fill="#1a1b26" x="0" y="196.7" width="1976.4" height="24.65" shape-rendering="crispEdges"/><rect fill="#464d6d" x="0" y="221.1" width="48.8" height="24.65" shape-rendering="crispEdges"/><rect fill="#464d6d" x="48.8" y="221.1" width="73.2" height="24.65" shape-rendering="crispEdges"/><rect fill="#464d6d" x="122" y="221.1" width="97.6" height="24.65" shape-rendering="crispEdges"/><rect fill="#464d6d" x="219.6" y="221.1" width="73.2" height="24.65" shape-rendering="crispEdges"/><rect fill="#464d6d" x="292.8" y="221.1" width="170.8" height="24.65" shape-rendering="crispEdges"/><rect fill="#464d6d" x="463.6" y="221.1" width="170.8" height="24.65" shape-rendering="crispEdges"/><rect fill="#3f4562" x="634.4" y="221.1" width="1342" height="24.65" shape-rendering="crispEdges"/><rect fill="#2a2e42" x="0" y="245.5" width="1976.4" height="24.65" shape-rendering="crispEdges"/><rect fill="#2a2e42" x="0" y="269.9" width="1976.4" height="24.65" shape-rendering="crispEdges"/><rect fill="#2a2e42" x="0" y="294.3" width="1976.4" height="24.65" shape-rendering="crispEdges"/><rect fill="#2a2e42" x="0" y="318.7" width="1976.4" height="24.65" shape-rendering="crispEdges"/><rect fill="#2a2e42" x="0" y="343.1" width="1976.4" height="24.65" shape-rendering="crispEdges"/><rect fill="#2a2e42" x="0" y="367.5" width="1976.4" height="24.65" shape-rendering="crispEdges"/><rect fill="#2a2e42" x="0" y="391.9" width="1976.4" height="24.65" shape-rendering="crispEdges"/><rect fill="#2a2e42" x="0" y="416.3" width="1976.4" height="24.65" shape-rendering="crispEdges"/><rect fill="#2a2e42" x="0" y="440.7" width="1976.4" height="24.65" shape-rendering="crispEdges"/><rect fill="#2a2e42" x="0" y="465.1" width="1976.4" height="24.65" shape-rendering="crispEdges"/><rect fill="#2a2e42" x="0" y="489.5" width="1976.4" height="24.65" shape-rendering="crispEdges"/><rect fill="#2a2e42" x="0" y="513.9" width="1976.4" height="24.65" shape-rendering="crispEdges"/><rect fill="#2a2e42" x="0" y="538.3" width="1976.4" height="24.65" shape-rendering="crispEdges"/><rect fill="#2a2e42" x="0" y="562.7" width="1976.4" height="24.65" shape-rendering="crispEdges"/><rect fill="#2a2e42" x="0" y="587.1" width="1976.4" height="24.65" shape-rendering="crispEdges"/><rect fill="#2a2e42" x="0" y="611.5" width="1976.4" height="24.65" shape-rendering="crispEdges"/><rect fill="#2a2e42" x="0" y="635.9" width="1976.4" height="24.65" shape-rendering="crispEdges"/><rect fill="#2a2e42" x="0" y="660.3" width="1976.4" height="24.65" shape-rendering="crispEdges"/><rect fill="#2a2e42" x="0" y="684.7" width="1976.4" height="24.65" shape-rendering="crispEdges"/><rect fill="#1a1b26" x="0" y="709.1" width="1952" height="24.65" shape-rendering="crispEdges"/><rect fill="#1a1b26" x="1952" y="709.1" width="24.4" height="24.65" shape-rendering="crispEdges"/><rect fill="#1a1b26" x="0" y="733.5" width="12.2" height="24.65" shape-rendering="crispEdges"/><rect fill="#24283b" x="12.2" y="733.5" width="195.2" height="24.65" shape-rendering="crispEdges"/><rect fill="#1a1b26" x="207.4" y="733.5" width="12.2" height="24.65" shape-rendering="crispEdges"/><rect fill="#24283b" x="219.6" y="733.5" width="195.2" height="24.65" shape-rendering="crispEdges"/><rect fill="#1a1b26" x="414.8" y="733.5" width="12.2" height="24.65" shape-rendering="crispEdges"/><rect fill="#24283b" x="427" y="733.5" width="195.2" height="24.65" shape-rendering="crispEdges"/><rect fill="#1a1b26" x="622.2" y="733.5" width="12.2" height="24.65" shape-rendering="crispEdges"/><rect fill="#24283b" x="634.4" y="733.5" width="195.2" height="24.65" shape-rendering="crispEdges"/><rect fill="#1a1b26" x="829.6" y="733.5" width="12.2" height="24.65" shape-rendering="crispEdges"/><rect fill="#24283b" x="841.8" y="733.5" width="195.2" height="24.65" shape-rendering="crispEdges"/><rect fill="#1a1b26" x="1037" y="733.5" width="915" height="24.65" shape-rendering="crispEdges"/><rect fill="#1a1b26" x="1952" y="733.5" width="24.4" height="24.65" shape-rendering="crispEdges"/><rect fill="#1a1b26" x="0" y="757.9" width="12.2" height="24.65" shape-rendering="crispEdges"/><rect fill="#24283b" x="12.2" y="757.9" width="36.6" height="24.65" shape-rendering="crispEdges"/><rect fill="#24283b" x="48.8" y="757.9" width="109.8" height="24.65" shape-rendering="crispEdges"/><rect fill="#24283b" x="158.6" y="757.9" width="48.8" height="24.65" shape-rendering="crispEdges"/><rect fill="#1a1b26" x="207.4" y="757.9" width="12.2" height="24.65" shape-rendering="crispEdges"/><rect fill="#24283b" x="219.6" y="757.9" width="48.8" height="24.65" shape-rendering="crispEdges"/><rect fill="#24283b" x="268.4" y="757.9" width="85.4" height="24.65" shape-rendering="crispEdges"/><rect fill="#24283b" x="353.8" y="757.9" width="61" height="24.65" shape-rendering="crispEdges"/><rect fill="#1a1b26" x="414.8" y="757.9" width="12.2" height="24.65" shape-rendering="crispEdges"/><rect fill="#24283b" x="427" y="757.9" width="48.8" height="24.65" shape-rendering="crispEdges"/><rect fill="#24283b" x="475.8" y="757.9" width="97.6" height="24.65" shape-rendering="crispEdges"/><rect fill="#24283b" x="573.4" y="757.9" width="48.8" height="24.65" shape-rendering="crispEdges"/><rect fill="#1a1b26" x="622.2" y="757.9" width="12.2" height="24.65" shape-rendering="crispEdges"/><rect fill="#24283b" x="634.4" y="757.9" width="12.2" height="24.65" shape-rendering="crispEdges"/><rect fill="#24283b" x="646.6" y="757.9" width="158.6" height="24.65" shape-rendering="crispEdges"/><rect fill="#24283b" x="805.2" y="757.9" width="24.4" height="24.65" shape-rendering="crispEdges"/><rect fill="#1a1b26" x="829.6" y="757.9" width="12.2" height="24.65" shape-rendering="crispEdges"/><rect fill="#24283b" x="841.8" y="757.9" width="61" height="24.65" shape-rendering="crispEdges"/><rect fill="#24283b" x="902.8" y="757.9" width="73.2" height="24.65" shape-rendering="crispEdges"/><rect fill="#24283b" x="976" y="757.9" width="61" height="24.65" shape-rendering="crispEdges"/><rect fill="#1a1b26" x="1037" y="757.9" width="915" height="24.65" shape-rendering="crispEdges"/><rect fill="#1a1b26" x="1952" y="757.9" width="24.4" height="24.65" shape-rendering="crispEdges"/><rect fill="#1a1b26" x="0" y="782.3" width="12.2" height="24.65" shape-rendering="crispEdges"/><rect fill="#24283b" x="12.2" y="782.3" width="195.2" height="24.65" shape-rendering="crispEdges"/><rect fill="#1a1b26" x="207.4" y="782.3" width="12.2" height="24.65" shape-rendering="crispEdges"/><rect fill="#24283b" x="219.6" y="782.3" width="195.2" height="24.65" shape-rendering="crispEdges"/><rect fill="#1a1b26" x="414.8" y="782.3" width="12.2" height="24.65" shape-rendering="crispEdges"/><rect fill="#24283b" x="427" y="782.3" width="195.2" height="24.65" shape-rendering="crispEdges"/><rect fill="#1a1b26" x="622.2" y="782.3" width="12.2" height="24.65" shape-rendering="crispEdges"/><rect fill="#24283b" x="634.4" y="782.3" width="195.2" height="24.65" shape-rendering="crispEdges"/><rect fill="#1a1b26" x="829.6" y="782.3" width="12.2" height="24.65" shape-rendering="crispEdges"/><rect fill="#24283b" x="841.8" y="782.3" width="195.2" height="24.65" shape-rendering="crispEdges"/><rect fill="#1a1b26" x="1037" y="782.3" width="915" height="24.65" shape-rendering="crispEdges"/><rect fill="#1a1b26" x="1952" y="782.3" width="24.4" height="24.65" shape-rendering="crispEdges"/><rect fill="#1a1b26" x="0" y="806.7" width="1952" height="24.65" shape-rendering="crispEdges"/><rect fill="#1a1b26" x="1952" y="806.7" width="24.4" height="24.65" shape-rendering="crispEdges"/><rect fill="#1a1b26" x="0" y="831.1" width="1952" height="24.65" shape-rendering="crispEdges"/><rect fill="#1a1b26" x="1952" y="831.1" width="24.4" height="24.65" shape-rendering="crispEdges"/><rect fill="#1a1b26" x="0" y="855.5" width="1952" height="24.65" shape-rendering="crispEdges"/><rect fill="#1a1b26" x="1952" y="855.5" width="24.4" height="24.65" shape-rendering="crispEdges"/><rect fill="#1a1b26" x="0" y="879.9" width="1952" height="24.65" shape-rendering="crispEdges"/><rect fill="#1a1b26" x="1952" y="879.9" width="24.4" height="24.65" shape-rendering="crispEdges"/><rect fill="#1a1b26" x="0" y="904.3" width="1952" height="24.65" shape-rendering="crispEdges"/><rect fill="#1a1b26" x="1952" y="904.3" width="24.4" height="24.65" shape-rendering="crispEdges"/><rect fill="#1a1b26" x="0" y="928.7" width="1952" height="24.65" shape-rendering="crispEdges"/><rect fill="#1a1b26" x="1952" y="928.7" width="24.4" height="24.65" shape-rendering="crispEdges"/><rect fill="#1a1b26" x="0" y="953.1" width="1952" height="24.65" shape-rendering="crispEdges"/><rect fill="#1a1b26" x="1952" y="953.1" width="24.4" height="24.65" shape-rendering="crispEdges"/><rect fill="#1a1b26" x="0" y="977.5" width="1952" height="24.65" shape-rendering="crispEdges"/><rect fill="#1a1b26" x="1952" y="977.5" width="24.4" height="24.65" shape-rendering="crispEdges"/><rect fill="#1a1b26" x="0" y="1001.9" width="1952" height="24.65" shape-rendering="crispEdges"/><rect fill="#1a1b26" x="1952" y="1001.9" width="24.4" height="24.65" shape-rendering="crispEdges"/><rect fill="#414868" x="0" y="1026.3" width="97.6" height="24.65" shape-rendering="crispEdges"/><rect fill="#414868" x="97.6" y="1026.3" width="134.2" height="24.65" shape-rendering="crispEdges"/><rect fill="#414868" x="231.8" y="1026.3" width="109.8" height="24.65" shape-rendering="crispEdges"/><rect fill="#414868" x="341.6" y="1026.3" width="122" height="24.65" shape-rendering="crispEdges"/><rect fill="#414868" x="463.6" y="1026.3" width="183" height="24.65" shape-rendering="crispEdges"/><rect fill="#414868" x="646.6" y="1026.3" width="1183.4" height="24.65" shape-rendering="crispEdges"/><rect fill="#414868" x="1830" y="1026.3" width="146.4" height="24.65" shape-rendering="crispEdges"/>
    <g class="terminal-9222737-matrix">
    <text class="terminal-9222737-r2" x="12.2" y="20" textLength="12.2" clip-path="url(#terminal-9222737-line-0)">⭘</text><text class="terminal-9222737-r2" x="915" y="20" textLength="122" clip-path="url(#terminal-9222737-line-0)">WebhookApp</text><text class="terminal-9222737-r1" x="1976.4" y="20" textLength="12.2" clip-path="url(#terminal-9222737-line-0)">
</text><text class="terminal-9222737-r3" x="0" y="44.4" textLength="231.8" clip-path="url(#terminal-9222737-line-1)">Webhook&#160;Capture&#160;CLI</text><text class="terminal-9222737-r1" x="1976.4" y="44.4" textLength="12.2" clip-path="url(#terminal-9222737-line-1)">
</text><text class="terminal-9222737-r1" x="1976.4" y="68.8" textLength="12.2" clip-path="url(#terminal-9222737-line-2)">
</text><text class="terminal-9222737-r4" x="12.2" y="93.2" textLength="183" clip-path="url(#terminal-9222737-line-3)">Status:&#160;Running</text><text class="terminal-9222737-r1" x="1976.4" y="93.2" textLength="12.2" clip-path="url(#terminal-9222737-line-3)">
</text><text class="terminal-9222737-r1" x="1976.4" y="117.6" textLength="12.2" clip-path="url(#terminal-9222737-line-4)">
</text><text class="terminal-9222737-r5" x="12.2" y="142" textLength="841.8" clip-path="url(#terminal-9222737-line-5)">Tunnel&#160;URL:&#160;https://5cdb-2a09-bac5-3b02-1aaa-00-2a8-30.ngrok-free.app</text><text class="terminal-9222737-r1" x="1976.4" y="142" textLength="12.2" clip-path="url(#terminal-9222737-line-5)">
</text><text class="terminal-9222737-r1" x="1976.4" y="166.4" textLength="12.2" clip-path="url(#terminal-9222737-line-6)">
</text><text class="terminal-9222737-r6" x="12.2" y="190.8" textLength="244" clip-path="url(#terminal-9222737-line-7)">Requests&#160;captured:&#160;0</text><text class="terminal-9222737-r1" x="1976.4" y="190.8" textLength="12.2" clip-path="url(#terminal-9222737-line-7)">
</text><text class="terminal-9222737-r1" x="1976.4" y="215.2" textLength="12.2" clip-path="url(#terminal-9222737-line-8)">
</text><text class="terminal-9222737-r7" x="0" y="239.6" textLength="48.8" clip-path="url(#terminal-9222737-line-9)">&#160;ID&#160;</text><text class="terminal-9222737-r7" x="48.8" y="239.6" textLength="73.2" clip-path="url(#terminal-9222737-line-9)">&#160;Time&#160;</text><text class="terminal-9222737-r7" x="122" y="239.6" textLength="97.6" clip-path="url(#terminal-9222737-line-9)">&#160;Method&#160;</text><text class="terminal-9222737-r7" x="219.6" y="239.6" textLength="73.2" clip-path="url(#terminal-9222737-line-9)">&#160;Path&#160;</text><text class="terminal-9222737-r7" x="292.8" y="239.6" textLength="170.8" clip-path="url(#terminal-9222737-line-9)">&#160;Content-Type&#160;</text><text class="terminal-9222737-r7" x="463.6" y="239.6" textLength="170.8" clip-path="url(#terminal-9222737-line-9)">&#160;Body&#160;Preview&#160;</text><text class="terminal-9222737-r1" x="1976.4" y="239.6" textLength="12.2" clip-path="url(#terminal-9222737-line-9)">
</text><text class="terminal-9222737-r1" x="1976.4" y="264" textLength="12.2" clip-path="url(#terminal-9222737-line-10)">
</text><text class="terminal-9222737-r1" x="1976.4" y="288.4" textLength="12.2" clip-path="url(#terminal-9222737-line-11)">
</text><text class="terminal-9222737-r1" x="1976.4" y="312.8" textLength="12.2" clip-path="url(#terminal-9222737-line-12)">
</text><text class="terminal-9222737-r1" x="1976.4" y="337.2" textLength="12.2" clip-path="url(#terminal-9222737-line-13)">
</text><text class="terminal-9222737-r1" x="1976.4" y="361.6" textLength="12.2" clip-path="url(#terminal-9222737-line-14)">
</text><text class="terminal-9222737-r1" x="1976.4" y="386" textLength="12.2" clip-path="url(#terminal-9222737-line-15)">
</text><text class="terminal-9222737-r1" x="1976.4" y="410.4" textLength="12.2" clip-path="url(#terminal-9222737-line-16)">
</text><text class="terminal-9222737-r1" x="1976.4" y="434.8" textLength="12.2" clip-path="url(#terminal-9222737-line-17)">
</text><text class="terminal-9222737-r1" x="1976.4" y="459.2" textLength="12.2" clip-path="url(#terminal-9222737-line-18)">
</text><text class="terminal-9222737-r1" x="1976.4" y="483.6" textLength="12.2" clip-path="url(#terminal-9222737-line-19)">
</text><text class="terminal-9222737-r1" x="1976.4" y="508" textLength="12.2" clip-path="url(#terminal-9222737-line-20)">
</text><text class="terminal-9222737-r1" x="1976.4" y="532.4" textLength="12.2" clip-path="url(#terminal-9222737-line-21)">
</text><text class="terminal-9222737-r1" x="1976.4" y="556.8" textLength="12.2" clip-path="url(#terminal-9222737-line-22)">
</text><text class="terminal-9222737-r1" x="1976.4" y="581.2" textLength="12.2" clip-path="url(#terminal-9222737-line-23)">
</text><text class="terminal-9222737-r1" x="1976.4" y="605.6" textLength="12.2" clip-path="url(#terminal-9222737-line-24)">
</text><text class="terminal-9222737-r1" x="1976.4" y="630" textLength="12.2" clip-path="url(#terminal-9222737-line-25)">
</text><text class="terminal-9222737-r1" x="1976.4" y="654.4" textLength="12.2" clip-path="url(#terminal-9222737-line-26)">
</text><text class="terminal-9222737-r1" x="1976.4" y="678.8" textLength="12.2" clip-path="url(#terminal-9222737-line-27)">
</text><text class="terminal-9222737-r1" x="1976.4" y="703.2" textLength="12.2" clip-path="url(#terminal-9222737-line-28)">
</text><text class="terminal-9222737-r1" x="1976.4" y="727.6" textLength="12.2" clip-path="url(#terminal-9222737-line-29)">
</text><text class="terminal-9222737-r8" x="12.2" y="752" textLength="195.2" clip-path="url(#terminal-9222737-line-30)">▔▔▔▔▔▔▔▔▔▔▔▔▔▔▔▔</text><text class="terminal-9222737-r8" x="219.6" y="752" textLength="195.2" clip-path="url(#terminal-9222737-line-30)">▔▔▔▔▔▔▔▔▔▔▔▔▔▔▔▔</text><text class="terminal-9222737-r8" x="427" y="752" textLength="195.2" clip-path="url(#terminal-9222737-line-30)">▔▔▔▔▔▔▔▔▔▔▔▔▔▔▔▔</text><text class="terminal-9222737-r8" x="634.4" y="752" textLength="195.2" clip-path="url(#terminal-9222737-line-30)">▔▔▔▔▔▔▔▔▔▔▔▔▔▔▔▔</text><text class="terminal-9222737-r8" x="841.8" y="752" textLength="195.2" clip-path="url(#terminal-9222737-line-30)">▔▔▔▔▔▔▔▔▔▔▔▔▔▔▔▔</text><text class="terminal-9222737-r1" x="1976.4" y="752" textLength="12.2" clip-path="url(#terminal-9222737-line-30)">
</text><text class="terminal-9222737-r7" x="48.8" y="776.4" textLength="109.8" clip-path="url(#terminal-9222737-line-31)">&#160;Refresh&#160;</text><text class="terminal-9222737-r7" x="268.4" y="776.4" textLength="85.4" clip-path="url(#terminal-9222737-line-31)">&#160;Clear&#160;</text><text class="terminal-9222737-r7" x="475.8" y="776.4" textLength="97.6" clip-path="url(#terminal-9222737-line-31)">&#160;Export&#160;</text><text class="terminal-9222737-r7" x="646.6" y="776.4" textLength="158.6" clip-path="url(#terminal-9222737-line-31)">&#160;Kill&#160;Tunnel&#160;</text><text class="terminal-9222737-r7" x="902.8" y="776.4" textLength="73.2" clip-path="url(#terminal-9222737-line-31)">&#160;Quit&#160;</text><text class="terminal-9222737-r1" x="1976.4" y="776.4" textLength="12.2" clip-path="url(#terminal-9222737-line-31)">
</text><text class="terminal-9222737-r9" x="12.2" y="800.8" textLength="195.2" clip-path="url(#terminal-9222737-line-32)">▁▁▁▁▁▁▁▁▁▁▁▁▁▁▁▁</text><text class="terminal-9222737-r9" x="219.6" y="800.8" textLength="195.2" clip-path="url(#terminal-9222737-line-32)">▁▁▁▁▁▁▁▁▁▁▁▁▁▁▁▁</text><text class="terminal-9222737-r9" x="427" y="800.8" textLength="195.2" clip-path="url(#terminal-9222737-line-32)">▁▁▁▁▁▁▁▁▁▁▁▁▁▁▁▁</text><text class="terminal-9222737-r9" x="634.4" y="800.8" textLength="195.2" clip-path="url(#terminal-9222737-line-32)">▁▁▁▁▁▁▁▁▁▁▁▁▁▁▁▁</text><text class="terminal-9222737-r9" x="841.8" y="800.8" textLength="195.2" clip-path="url(#terminal-9222737-line-32)">▁▁▁▁▁▁▁▁▁▁▁▁▁▁▁▁</text><text class="terminal-9222737-r1" x="1976.4" y="800.8" textLength="12.2" clip-path="url(#terminal-9222737-line-32)">
</text><text class="terminal-9222737-r1" x="1976.4" y="825.2" textLength="12.2" clip-path="url(#terminal-9222737-line-33)">
</text><text class="terminal-9222737-r1" x="1976.4" y="849.6" textLength="12.2" clip-path="url(#terminal-9222737-line-34)">
</text><text class="terminal-9222737-r1" x="1976.4" y="874" textLength="12.2" clip-path="url(#terminal-9222737-line-35)">
</text><text class="terminal-9222737-r1" x="1976.4" y="898.4" textLength="12.2" clip-path="url(#terminal-9222737-line-36)">
</text><text class="terminal-9222737-r1" x="1976.4" y="922.8" textLength="12.2" clip-path="url(#terminal-9222737-line-37)">
</text><text class="terminal-9222737-r1" x="1976.4" y="947.2" textLength="12.2" clip-path="url(#terminal-9222737-line-38)">
</text><text class="terminal-9222737-r1" x="1976.4" y="971.6" textLength="12.2" clip-path="url(#terminal-9222737-line-39)">
</text><text class="terminal-9222737-r1" x="1976.4" y="996" textLength="12.2" clip-path="url(#terminal-9222737-line-40)">
</text><text class="terminal-9222737-r1" x="1976.4" y="1020.4" textLength="12.2" clip-path="url(#terminal-9222737-line-41)">
</text>
    </g>
    </g>
</svg>
